<svg version="1.2" xmlns="http://www.w3.org/2000/svg" viewBox="0 0 296 127" width="296" height="127"><style></style><path  d="m48.5 36.7c0.3 1 5.1 9 10.5 17.8l9.9 16 0.1 25.5 7.5-0.5v-26c-20.9-33.9-21-34-24.8-34.3-3.4-0.3-3.8-0.1-3.2 1.5zm40.3 0c-0.9 1-3.9 5.6-6.8 10.3l-5.3 8.5c3 5 4 6.3 4.3 6.1 0.3-0.2 3.7-5.5 7.7-11.7 3.9-6.3 7.4-12.2 7.7-13.2 0.5-1.4 0-1.7-2.8-1.7-1.9 0-3.9 0.7-4.8 1.7zm28.9-1c-0.2 0.4-5.2 13.9-11.1 29.8-5.8 15.9-10.6 29.3-10.6 29.7 0 0.5 1.6 0.8 3.5 0.8q3.5 0 4.4-1.8c0.5-0.9 3.4-8.9 6.6-17.7 3.1-8.8 7.1-19.7 8.8-24.3 1.8-4.5 3.5-7.9 3.9-7.5 0.4 0.5 2.7 6.6 5.3 13.8 2.5 7.1 4.5 13.1 4.5 13.2 0 0.2-2.9 0.3-6.5 0.3-6.5 0-6.5 0-7.5 3.2-0.6 1.8-1 3.4-1 3.5 0 0.2 3.9 0.3 8.8 0.3l8.7-0.1 6.2 16.6c7.7 0.5 8.2 0.2 7.8-1.3-0.3-0.9-5.1-14.5-10.9-30.2l-10.3-28.5c-7.8-0.5-10.3-0.2-10.6 0.2zm28.7 0.5c-0.3 0.7-0.4 2.4-0.2 3.8 0.3 2.5 0.4 2.5 11.1 2.7l10.7 0.3v53l7.5-0.5 0.5-52.5h21v-8c-44.1 0-50.2 0.3-50.6 1.2zm68.2 2c-0.8 1.8-5.7 15.1-11 29.5-5.3 14.5-9.6 26.7-9.6 27.3 0 0.6 1.7 0.9 3.7 0.7l3.8-0.2c5.1-13.9 7.9-21.8 9.5-26.5 1.6-4.7 4.1-12 5.7-16.3 1.5-4.3 3.2-7.9 3.7-8 0.5-0.1 3 6 5.7 13.5l4.9 13.8c-12.5 0-13.1 0.2-14 2.5-0.6 1.4-1 2.9-1 3.5 0 0.6 3.6 1 8.8 1h8.7c5.8 15.9 6.2 16.5 9 16.8 1.7 0.2 3.6 0.1 4.3-0.2 0.8-0.4-1.9-9-9.8-30.4-6.1-16.3-11-29.8-11-30 0-0.1-2.3-0.2-5-0.2-4.8 0-5.2 0.2-6.4 3.2z"/></svg>